<?xml version="1.0" standalone="no"?>
<!DOCTYPE svg PUBLIC "-//W3C//DTD SVG 20010904//EN"
 "http://www.w3.org/TR/2001/REC-SVG-20010904/DTD/svg10.dtd">
<svg version="1.0" xmlns="http://www.w3.org/2000/svg"
 width="2336.000000pt" height="2336.000000pt" viewBox="0 0 2336.000000 2336.000000"
 preserveAspectRatio="xMidYMid meet">
<metadata>
Created by potrace 1.14, written by Peter Selinger 2001-2017
</metadata>
<g transform="translate(0.000000,2336.000000) scale(0.100000,-0.100000)"
fill="#000000" stroke="none">
<path d="M11288 23355 c-1 -1 -77 -6 -168 -10 -91 -3 -181 -8 -200 -10 -19 -2
-82 -6 -140 -10 -58 -3 -116 -8 -130 -9 -14 -2 -61 -7 -105 -10 -44 -4 -96 -9
-115 -11 -19 -2 -64 -7 -100 -10 -88 -8 -121 -13 -124 -17 -8 -10 -145 -266
-236 -438 -156 -297 -448 -899 -545 -1125 -7 -16 -22 -51 -34 -78 -288 -645
-561 -1451 -692 -2040 -17 -78 -32 -146 -33 -152 -3 -13 -20 -108 -21 -117 -1
-15 -17 -18 -121 -23 -60 -3 -129 -7 -154 -10 -25 -2 -83 -7 -130 -10 -47 -4
-101 -8 -121 -10 -20 -2 -70 -7 -110 -10 -41 -3 -85 -7 -99 -10 -14 -2 -54 -7
-90 -10 -36 -4 -76 -8 -90 -10 -14 -2 -52 -6 -85 -10 -114 -12 -528 -72 -555
-80 -8 -2 -35 -7 -60 -10 -55 -7 -182 -30 -315 -55 -55 -11 -111 -21 -125 -24
-14 -2 -61 -12 -105 -21 -44 -9 -91 -19 -105 -22 -155 -27 -770 -178 -1060
-259 -30 -9 -68 -19 -85 -24 -16 -4 -84 -24 -150 -44 -66 -20 -129 -39 -141
-41 -54 -12 -711 -229 -904 -298 -274 -99 -451 -166 -700 -267 -151 -61 -279
-112 -285 -113 -5 -2 -28 -11 -49 -20 -22 -10 -67 -29 -100 -43 -34 -15 -79
-34 -101 -44 -22 -10 -68 -29 -102 -44 -35 -14 -89 -38 -120 -52 -32 -15 -130
-59 -219 -99 -235 -106 -375 -173 -699 -335 -285 -143 -290 -146 -314 -190
-301 -571 -575 -1220 -779 -1850 -58 -181 -131 -419 -137 -451 -2 -8 -19 -73
-39 -145 -19 -71 -47 -178 -62 -239 -14 -60 -28 -117 -30 -125 -4 -17 -70
-322 -78 -360 -2 -14 -10 -50 -16 -80 -6 -30 -13 -66 -15 -80 -2 -14 -10 -63
-19 -110 -9 -47 -18 -103 -21 -125 -3 -22 -8 -51 -10 -65 -3 -14 -7 -43 -11
-65 -3 -22 -7 -51 -9 -65 -11 -73 -45 -323 -50 -375 -4 -33 -8 -76 -10 -95 -2
-19 -7 -66 -10 -105 -3 -38 -8 -83 -10 -100 -7 -53 -20 -251 -32 -465 -10
-187 -10 -921 0 -1115 10 -194 15 -275 22 -355 3 -36 8 -92 11 -125 6 -79 24
-251 29 -295 3 -19 7 -57 10 -85 3 -27 8 -61 10 -75 3 -14 7 -52 10 -85 3 -33
8 -67 10 -75 2 -8 7 -35 10 -60 3 -25 10 -70 15 -100 5 -30 12 -68 14 -85 24
-152 67 -384 87 -475 5 -25 26 -115 45 -200 19 -85 37 -164 39 -175 6 -28 24
-104 36 -145 55 -202 111 -407 113 -415 1 -5 4 -14 7 -20 4 -5 9 -23 13 -40 8
-36 114 -372 126 -400 5 -11 23 -60 40 -110 96 -276 227 -605 355 -890 15 -33
34 -76 42 -95 37 -82 275 -562 315 -635 25 -44 61 -109 80 -145 190 -348 487
-819 716 -1135 36 -49 77 -106 91 -126 159 -225 520 -666 771 -943 235 -259
582 -603 859 -852 30 -27 62 -56 71 -64 8 -8 42 -37 75 -65 33 -27 65 -54 71
-60 6 -5 32 -28 59 -50 26 -22 53 -45 59 -50 21 -20 311 -251 409 -325 104
-79 136 -103 183 -135 16 -10 54 -38 84 -61 90 -68 458 -314 470 -314 5 0 10
-4 10 -10 0 -5 5 -10 11 -10 6 0 25 -11 43 -25 18 -14 36 -25 40 -25 3 0 28
-15 54 -33 26 -19 52 -36 57 -38 6 -2 47 -26 93 -54 108 -65 127 -76 187 -109
28 -16 79 -45 115 -66 108 -62 195 -108 425 -225 193 -98 283 -141 500 -240
28 -12 81 -37 118 -54 37 -17 74 -31 80 -31 7 0 17 -4 23 -8 5 -5 29 -17 54
-26 25 -10 59 -24 75 -31 291 -131 1173 -425 1473 -490 12 -3 73 -18 135 -34
62 -16 177 -43 257 -60 80 -18 163 -36 185 -41 96 -22 526 -98 655 -115 25 -3
52 -8 60 -10 8 -2 42 -7 75 -10 33 -3 71 -7 85 -10 14 -2 46 -7 73 -10 26 -3
66 -7 90 -10 48 -6 122 -14 187 -20 25 -2 72 -7 105 -10 102 -9 201 -16 460
-31 264 -16 1152 -9 1345 11 19 1 78 6 130 9 52 4 113 9 135 11 22 2 72 7 110
10 39 3 84 8 100 10 17 3 57 7 90 10 33 3 69 8 80 10 11 2 47 7 80 10 64 6
235 30 325 45 30 5 75 12 100 15 79 11 359 63 534 99 93 19 173 33 177 30 13
-8 466 112 739 196 326 100 878 298 1036 371 22 10 43 19 47 19 4 0 26 9 50
19 23 11 73 33 110 50 38 17 70 31 72 31 2 0 39 16 82 35 254 116 646 312 828
414 119 67 331 189 363 209 20 12 53 31 72 42 91 52 170 107 188 130 76 102
471 750 617 1015 16 28 47 84 70 125 120 214 404 767 505 985 18 39 51 108 72
155 163 348 489 1127 548 1310 4 14 15 41 24 61 l15 37 -112 -50 c-62 -27
-121 -53 -132 -58 -11 -4 -36 -15 -55 -23 -89 -37 -539 -197 -570 -202 -3 0
-21 -6 -41 -13 -20 -7 -45 -15 -55 -17 -10 -2 -85 -24 -166 -49 -135 -42 -344
-100 -394 -111 -12 -3 -84 -21 -160 -41 -117 -29 -451 -107 -519 -120 -11 -2
-87 -17 -170 -34 -82 -17 -166 -33 -185 -36 -19 -3 -43 -7 -52 -10 -10 -3 -29
-7 -43 -10 -14 -2 -37 -6 -52 -9 -98 -17 -212 -37 -238 -41 -16 -2 -41 -6 -55
-9 -13 -2 -42 -7 -65 -10 -22 -4 -94 -15 -160 -25 -66 -11 -142 -22 -170 -26
-27 -3 -57 -8 -65 -9 -9 -2 -43 -6 -75 -10 -33 -4 -69 -9 -80 -11 -11 -2 -44
-7 -74 -10 -30 -3 -64 -8 -75 -10 -12 -2 -49 -6 -84 -10 -35 -3 -73 -7 -85
-10 -22 -4 -75 -10 -169 -19 -29 -3 -73 -7 -98 -10 -25 -2 -67 -7 -95 -10 -27
-2 -77 -7 -110 -11 -63 -7 -67 -7 -210 -19 -49 -4 -106 -8 -125 -10 -19 -2
-78 -6 -130 -10 -52 -3 -111 -8 -130 -10 -19 -2 -93 -7 -165 -11 -71 -3 -150
-8 -175 -9 -25 -2 -110 -6 -190 -10 -80 -4 -174 -8 -210 -10 -553 -28 -1684
-23 -2375 10 -504 23 -528 25 -542 43 -10 14 -67 107 -118 194 -289 493 -338
578 -352 608 -4 8 -21 40 -38 70 -31 54 -73 131 -182 335 -61 114 -395 784
-443 890 -18 39 -43 93 -55 120 -13 28 -37 82 -55 120 -90 194 -262 598 -372
875 -65 164 -85 215 -160 415 -201 539 -414 1204 -568 1775 -33 123 -150 590
-166 665 -9 39 -17 77 -19 85 -8 32 -37 166 -41 190 -3 14 -11 53 -19 86 -8
34 -16 73 -19 85 -2 13 -16 80 -30 149 -14 69 -27 139 -30 155 -3 17 -8 39
-10 50 -2 11 -7 40 -12 65 -4 25 -8 47 -9 50 -2 7 -17 90 -21 115 -6 39 -33
201 -39 235 -8 48 -25 160 -30 190 -8 61 -17 117 -21 145 -3 17 -7 41 -9 55
-11 82 -25 181 -30 220 -2 14 -7 48 -10 75 -3 28 -12 106 -20 175 -18 154 -22
189 -30 265 -3 33 -8 78 -10 100 -6 51 -14 134 -20 210 -2 33 -7 87 -10 120
-12 144 -22 285 -31 450 -4 72 -8 148 -9 170 -25 385 -25 1440 0 1880 14 254
29 478 40 595 21 237 34 381 40 435 3 22 7 63 10 90 18 158 42 340 71 540 9
61 18 126 20 145 2 19 9 58 14 85 5 28 12 73 16 100 3 28 8 53 10 56 2 4 6 27
9 50 3 24 10 67 15 94 6 28 12 64 15 80 7 48 92 466 103 510 6 22 13 51 16 65
2 14 16 75 31 135 15 61 29 117 31 125 13 56 84 311 94 337 8 22 20 33 38 37
53 10 114 18 252 32 36 3 79 8 95 10 67 7 204 18 348 29 56 4 98 6 312 20 393
25 1450 25 1870 0 33 -2 112 -6 175 -9 63 -4 135 -8 160 -10 25 -3 90 -7 145
-11 55 -3 114 -7 130 -9 17 -2 74 -7 128 -11 54 -3 108 -8 120 -10 12 -2 56
-7 97 -10 41 -3 89 -8 105 -9 17 -2 59 -7 95 -10 36 -4 81 -8 100 -11 19 -2
64 -7 100 -11 36 -4 74 -8 85 -9 11 -2 45 -6 75 -9 30 -4 66 -9 80 -11 14 -2
45 -7 70 -10 43 -5 94 -12 150 -20 14 -2 61 -9 105 -15 78 -10 114 -16 165
-25 14 -3 48 -7 75 -11 28 -3 59 -8 70 -10 21 -4 195 -33 230 -39 24 -3 300
-53 335 -60 26 -5 59 -11 108 -20 15 -2 92 -18 172 -35 80 -17 154 -33 165
-34 11 -2 31 -6 45 -9 14 -3 124 -29 245 -57 823 -188 1540 -398 2285 -670
124 -45 243 -89 265 -97 195 -71 747 -299 1021 -424 258 -116 319 -145 659
-315 316 -157 370 -185 550 -283 44 -25 105 -58 135 -74 30 -16 56 -31 58 -32
2 -2 55 -203 67 -255 2 -8 13 -55 25 -105 12 -49 23 -97 25 -105 2 -8 15 -64
30 -125 25 -105 60 -261 71 -315 2 -14 11 -56 20 -95 9 -38 18 -81 20 -95 3
-14 16 -79 29 -145 14 -66 27 -136 30 -155 3 -19 10 -53 15 -75 10 -43 47
-241 54 -290 3 -16 19 -111 35 -210 43 -257 81 -509 97 -635 3 -25 7 -56 9
-70 2 -14 9 -65 15 -115 6 -49 13 -103 15 -120 4 -33 13 -107 20 -172 3 -24 8
-64 11 -90 3 -27 7 -70 10 -98 3 -27 7 -66 9 -85 3 -19 7 -69 10 -110 3 -41 8
-91 10 -110 2 -19 7 -71 10 -115 3 -44 8 -98 10 -120 2 -22 7 -83 10 -135 4
-52 8 -117 10 -145 4 -45 7 -94 20 -355 29 -544 24 -1517 -10 -2050 -4 -63 -8
-140 -10 -170 -2 -30 -6 -93 -10 -140 -5 -80 -8 -112 -20 -242 -2 -29 -7 -84
-10 -123 -3 -38 -8 -86 -10 -105 -2 -19 -7 -62 -10 -95 -3 -33 -8 -80 -11
-105 -2 -25 -7 -65 -9 -90 -2 -25 -7 -61 -10 -80 -2 -19 -7 -57 -11 -85 -3
-27 -7 -61 -9 -75 -2 -14 -7 -52 -10 -85 -4 -33 -8 -67 -10 -75 -2 -8 -7 -39
-10 -69 -4 -30 -9 -63 -11 -75 -2 -12 -6 -42 -9 -67 -3 -25 -8 -56 -10 -70 -3
-13 -8 -44 -11 -69 -3 -25 -7 -52 -9 -60 -2 -8 -7 -37 -10 -65 -4 -27 -8 -57
-10 -65 -3 -8 -7 -33 -10 -55 -3 -22 -9 -53 -12 -70 -3 -16 -7 -40 -9 -52 -1
-12 -5 -36 -9 -53 -4 -17 -8 -41 -10 -53 -1 -12 -10 -62 -20 -112 -9 -49 -19
-101 -21 -115 -3 -14 -7 -32 -9 -40 -3 -8 -7 -33 -11 -54 -3 -21 -21 -111 -41
-200 -19 -89 -37 -172 -39 -186 -16 -80 -121 -517 -169 -700 -30 -118 -57
-222 -60 -230 -2 -8 -18 -64 -35 -125 -17 -60 -40 -141 -51 -180 -37 -130
-120 -399 -181 -583 -33 -101 -58 -185 -56 -188 5 -5 213 68 418 146 74 28
149 56 165 62 17 5 44 16 60 23 17 7 77 32 135 54 58 23 119 48 135 56 37 17
87 37 100 41 13 3 249 106 333 145 35 16 65 29 67 29 1 0 56 25 121 56 66 30
164 76 219 102 215 101 671 334 682 349 7 9 10 20 7 24 -3 5 -2 9 3 9 4 0 15
15 22 32 8 18 37 80 64 138 69 148 187 425 251 588 29 75 57 146 61 157 5 11
9 22 10 25 0 3 11 32 24 65 119 307 269 798 372 1210 27 110 51 209 53 220 2
11 11 50 20 88 9 37 18 79 21 95 2 15 16 82 29 149 22 107 48 247 62 338 2 17
6 41 9 55 8 41 14 84 20 126 2 21 9 73 15 114 23 155 29 197 35 260 3 30 8 73
11 95 20 180 30 295 40 435 3 52 8 111 9 130 26 266 26 1161 0 1535 -2 28 -6
91 -9 140 -4 50 -9 113 -11 140 -3 28 -7 77 -10 110 -10 117 -21 219 -39 355
-2 19 -7 62 -11 95 -3 33 -8 67 -10 75 -3 8 -7 38 -10 65 -3 28 -8 57 -10 65
-2 8 -7 40 -10 70 -3 30 -8 62 -11 71 -3 10 -6 30 -8 45 -6 44 -24 141 -61
329 -28 141 -48 231 -100 455 -41 179 -156 572 -171 591 -8 8 -28 60 -44 115
-17 54 -35 108 -39 119 -5 11 -16 45 -26 75 -93 291 -283 780 -411 1058 -19
41 -34 75 -34 77 0 14 -224 469 -310 630 -192 360 -382 678 -600 1005 -91 136
-199 293 -217 315 -5 6 -19 26 -33 45 -35 50 -223 304 -230 310 -3 3 -37 46
-75 95 -38 50 -77 99 -86 110 -128 153 -253 300 -262 310 -10 10 -57 63 -140
159 -180 207 -625 651 -877 876 -99 88 -107 95 -169 148 -30 26 -59 52 -65 57
-109 96 -552 448 -656 520 -16 11 -75 54 -132 95 -165 120 -509 347 -698 462
-193 117 -193 117 -405 235 -82 46 -166 93 -185 104 -19 11 -165 84 -325 163
-420 208 -722 338 -1155 498 -30 12 -64 24 -75 29 -49 21 -394 134 -535 175
-85 25 -162 48 -170 51 -8 3 -20 7 -26 8 -7 2 -52 14 -100 28 -93 27 -430 112
-499 127 -121 25 -434 90 -455 93 -92 17 -150 27 -180 32 -19 3 -60 10 -90 15
-30 5 -104 16 -165 25 -60 9 -126 18 -145 21 -19 3 -51 7 -70 9 -50 5 -138 16
-164 20 -11 2 -52 7 -91 10 -38 4 -83 9 -100 10 -16 2 -66 6 -110 10 -44 3
-96 8 -115 10 -19 2 -89 7 -155 10 -66 4 -136 9 -155 11 -42 5 -997 14 -1002
9z"/>
</g>
</svg>
